<?xml version="1.0" encoding="UTF-8" standalone="no"?>
<!-- Generator: Adobe Illustrator 16.0.0, SVG Export Plug-In . SVG Version: 6.00 Build 0)  -->

<svg
   xmlns:dc="http://purl.org/dc/elements/1.1/"
   xmlns:cc="http://creativecommons.org/ns#"
   xmlns:rdf="http://www.w3.org/1999/02/22-rdf-syntax-ns#"
   xmlns:svg="http://www.w3.org/2000/svg"
   xmlns="http://www.w3.org/2000/svg"
   xmlns:sodipodi="http://sodipodi.sourceforge.net/DTD/sodipodi-0.dtd"
   xmlns:inkscape="http://www.inkscape.org/namespaces/inkscape"
   version="1.1"
   id="Layer_1"
   x="0px"
   y="0px"
   width="495.40784"
   height="112.11018"
   viewBox="0 0 495.40782 112.11018"
   enable-background="new 0 0 322.131 77.5"
   xml:space="preserve"
   inkscape:version="0.91 r13725"
   sodipodi:docname="logo-big-blue.svg"><metadata
     id="metadata176"><rdf:RDF><cc:Work
         rdf:about=""><dc:format>image/svg+xml</dc:format><dc:type
           rdf:resource="http://purl.org/dc/dcmitype/StillImage" /><dc:title></dc:title></cc:Work></rdf:RDF></metadata><defs
     id="defs174" /><sodipodi:namedview
     pagecolor="#ffffff"
     bordercolor="#666666"
     borderopacity="1"
     objecttolerance="10"
     gridtolerance="10"
     guidetolerance="10"
     inkscape:pageopacity="0"
     inkscape:pageshadow="2"
     inkscape:window-width="2048"
     inkscape:window-height="1128"
     id="namedview172"
     showgrid="false"
     fit-margin-top="0"
     fit-margin-left="0"
     fit-margin-right="0"
     fit-margin-bottom="0"
     inkscape:zoom="0.87852454"
     inkscape:cx="157.90816"
     inkscape:cy="76.168182"
     inkscape:window-x="0"
     inkscape:window-y="24"
     inkscape:window-maximized="1"
     inkscape:current-layer="Layer_1" /><linearGradient
     id="SVGID_1_"
     gradientUnits="userSpaceOnUse"
     x1="-189.84911"
     y1="135.8701"
     x2="-127.186"
     y2="135.8701"
     gradientTransform="matrix(1.5531211,0,0,-1.5531211,296.40177,279.08344)"><stop
       offset="0"
       style="stop-color:#FDFDFD"
       id="stop4" /><stop
       offset="0.1452"
       style="stop-color:#F4F5F5"
       id="stop6" /><stop
       offset="0.6844"
       style="stop-color:#D9DBDB"
       id="stop8" /><stop
       offset="1"
       style="stop-color:#CFD1D1"
       id="stop10" /></linearGradient><path
     d="M 98.866507,49.125221 C 87.676269,56.890826 76.054264,54.843813 62.8605,43.90984 55.254866,37.605722 45.543199,39.606142 38.92535,41.651602 34.812686,42.925161 29.103412,42.807124 24.142744,41.768086 2.4332168,37.217441 7.1686832,51.145831 11.191267,63.535079 18.579464,86.272772 6.1653669,91.539405 1.8989431,83.438326 -0.84386869,93.712222 12.985121,96.75168 18.885429,95.398911 c 9.328045,-2.138647 21.822904,-3.343869 29.576085,-0.973807 14.822988,4.528906 20.384715,0.796752 17.926124,-3.991521 -0.807623,-1.571758 -0.355665,-3.798934 0.90547,-4.855056 4.401545,-3.68711 8.223776,-0.579315 12.43584,-3.023927 3.27398,-1.904127 3.225833,-6.099107 -1.848214,-8.484701 -2.688452,-1.262687 -2.561097,-4.474542 0.285774,-5.963985 5.793142,-3.031692 13.58981,-1.609033 15.531212,-7.979936 0.694245,-2.281535 2.638752,-8.012552 5.168787,-11.000757 z"
     id="path12"
     inkscape:connector-curvature="0"
     style="fill:url(#SVGID_1_)" /><linearGradient
     id="SVGID_2_"
     gradientUnits="userSpaceOnUse"
     x1="36.190399"
     y1="47.216801"
     x2="27.9168"
     y2="47.216801"
     gradientTransform="matrix(1.5531211,0,0,1.5531211,-4.9037273,-4.3611641)"><stop
       offset="0"
       style="stop-color:#E6E6E6"
       id="stop15" /><stop
       offset="1"
       style="stop-color:#B2B3B3"
       id="stop17" /></linearGradient><path
     d="m 43.027143,46.340475 c 0,7.739202 1.150863,35.408055 7.048064,47.222647 l -13.56496,-0.301305 0,-48.881381 6.516896,1.960039 z"
     id="path19"
     inkscape:connector-curvature="0"
     style="fill:url(#SVGID_2_)" /><linearGradient
     id="SVGID_3_"
     gradientUnits="userSpaceOnUse"
     x1="-356.99219"
     y1="766.71289"
     x2="-349.99191"
     y2="747.21222"
     gradientTransform="matrix(1.5531211,0,0,1.5531211,597.70727,-1112.5131)"><stop
       offset="0"
       style="stop-color:#F6F6F6"
       id="stop22" /><stop
       offset="1"
       style="stop-color:#B2B3B3"
       id="stop24" /></linearGradient><path
     d="M 12.544035,64.591201 C 8.2543152,53.008024 2.4347699,38.770562 24.144297,43.321207 c 4.959115,1.039038 10.668389,1.157075 14.782606,-0.116484 6.61785,-2.04546 15.487724,-3.795828 22.542,2.362297 13.78395,12.033583 26.208919,12.878481 37.399154,5.112875 -2.531585,2.988205 -4.823991,8.640013 -5.171891,11.000757 -0.293539,2.008186 -1.761239,2.908996 -3.699534,3.694875 C 61.234382,77.053445 66.087886,57.133113 56.83439,50.650386 51.929633,47.211776 44.824104,47.404363 39.366437,49.389251 34.44149,51.18 29.368996,50.731148 24.094597,48.774216 15.293059,45.501789 9.3787742,47.22886 12.544035,64.591201 Z"
     id="path26"
     inkscape:connector-curvature="0"
     style="fill:url(#SVGID_3_)" /><g
     id="g28"
     style="opacity:0.75"
     transform="matrix(1.5531211,0,0,1.5531211,-4.9037273,-4.3611641)"><path
       d="m 35.561,30.336 c 2.719,0 4.941,0.747 6.795,2.284 5.541,4.592 10.63,6.823 15.557,6.823 1.473,0 2.934,-0.206 4.373,-0.615 -0.317,0.854 -0.559,1.602 -0.714,2.111 -0.432,1.414 -1.598,1.811 -4.357,2.437 -1.463,0.332 -3.121,0.708 -4.656,1.513 -1.577,0.824 -2.536,2.322 -2.503,3.908 0.032,1.51 0.928,2.822 2.396,3.514 1.153,0.541 1.478,1.135 1.487,1.373 0.012,0.26 -0.343,0.487 -0.45,0.551 -0.597,0.346 -1.181,0.412 -2.051,0.412 -0.16,0 -0.321,-0.002 -0.482,-0.004 -0.179,-0.002 -0.356,-0.004 -0.535,-0.004 -1.632,0 -3.393,0.211 -5.219,1.74 -1.545,1.294 -2.019,3.742 -1.078,5.573 0.137,0.267 0.141,0.405 0.149,0.407 -0.093,0.127 -0.771,0.567 -2.586,0.567 -1.776,0 -4.107,-0.426 -6.741,-1.229 -2.005,-0.613 -4.512,-0.924 -7.451,-0.924 -3.827,0 -8.428,0.553 -12.624,1.515 -0.412,0.094 -0.934,0.144 -1.509,0.144 -1.875,0 -4.187,-0.543 -5.673,-1.594 1.674,-0.011 3.264,-0.886 4.366,-2.404 1.341,-1.844 3.15,-6.289 0.213,-15.33 l -0.081,-0.25 C 10.909,38.918 9.317,34.02 10.646,32.191 11.154,31.492 12.282,31.138 14,31.138 c 1.188,0 2.632,0.177 4.295,0.525 1.76,0.369 3.618,0.563 5.375,0.563 1.944,0 3.676,-0.231 5.144,-0.686 1.664,-0.519 4.176,-1.204 6.747,-1.204 m 0,-2 c -2.663,0 -5.243,0.641 -7.34,1.29 -1.324,0.41 -2.904,0.596 -4.553,0.596 -1.649,0 -3.367,-0.187 -4.965,-0.521 -1.854,-0.389 -3.409,-0.568 -4.704,-0.568 -8.474,0 -5.881,7.664 -3.635,14.583 3.376,10.394 0.327,15.117 -2.708,15.117 -1.241,0 -2.479,-0.789 -3.276,-2.302 -1.506,5.643 4.751,7.896 8.98,7.896 0.729,0 1.397,-0.067 1.956,-0.194 C 19,63.389 23.45,62.77 27.493,62.77 c 2.549,0 4.936,0.246 6.866,0.836 3.037,0.929 5.472,1.318 7.326,1.318 3.975,0 5.295,-1.785 4.216,-3.888 -0.52,-1.013 -0.229,-2.446 0.583,-3.126 1.375,-1.152 2.663,-1.274 3.935,-1.274 0.34,0 0.679,0.009 1.018,0.009 1.005,0 2.011,-0.076 3.055,-0.682 2.108,-1.227 2.077,-3.927 -1.19,-5.463 -1.731,-0.814 -1.649,-2.881 0.184,-3.84 3.73,-1.952 8.75,-1.036 10,-5.139 0.448,-1.47 1.7,-5.159 3.33,-7.083 -2.906,2.017 -5.857,3.005 -8.902,3.005 -4.504,0 -9.211,-2.163 -14.28,-6.364 -2.489,-2.06 -5.325,-2.743 -8.073,-2.743 l 0,0 z m 31.253,6.102 0.005,0 -0.005,0 z"
       id="path30"
       inkscape:connector-curvature="0"
       style="fill:#ffffff" /></g><line
     stroke-miterlimit="10"
     x1="39.36644"
     y1="93.735519"
     x2="39.36644"
     y2="45.24242"
     id="line32"
     style="fill:none;stroke:#ffffff;stroke-width:5.43592405;stroke-miterlimit:10" /><path
     stroke-miterlimit="10"
     d="M 98.866507,49.125221 C 87.676269,56.890826 76.054264,54.843813 62.8605,43.90984 55.254866,37.605722 45.543199,39.606142 38.92535,41.651602 34.812686,42.925161 29.103412,42.807124 24.142744,41.768086 2.4332168,37.217441 7.1686832,51.145831 11.191267,63.535079 18.579464,86.272772 6.1653669,91.539405 1.8989431,83.438326 -0.84386869,93.712222 12.985121,96.75168 18.885429,95.398911 c 9.328045,-2.138647 21.822904,-3.343869 29.576085,-0.973807 14.822988,4.528906 20.384715,0.796752 17.926124,-3.991521 -0.807623,-1.571758 -0.355665,-3.798934 0.90547,-4.855056 4.401545,-3.68711 8.223776,-0.579315 12.43584,-3.023927 3.27398,-1.904127 3.225833,-6.099107 -1.848214,-8.484701 -2.688452,-1.262687 -2.561097,-4.474542 0.285774,-5.963985 5.793142,-3.031692 13.58981,-1.609033 15.531212,-7.979936 0.694245,-2.281535 2.638752,-8.012552 5.168787,-11.000757 z"
     id="path34"
     inkscape:connector-curvature="0"
     style="fill:none;stroke:#034672;stroke-width:3.10624218;stroke-linecap:round;stroke-linejoin:round;stroke-miterlimit:10" /><path
     d="M 12.544035,63.03808 C 8.2543152,51.454903 2.4347699,37.217441 24.144297,41.768086 c 4.959115,1.039038 10.668389,1.157075 14.782606,-0.116484 6.61785,-2.04546 15.487724,-3.795828 22.542,2.362297 13.78395,12.033583 26.208919,12.878481 37.399154,5.112875 -2.531585,2.988205 -4.823991,8.640013 -5.171891,11.000757 -0.293539,2.008185 -1.733283,2.97578 -3.699534,3.694875 C 69.621236,71.269622 68.060349,55.30043 58.806854,48.81149 53.902097,45.37288 44.824104,45.848135 39.366437,47.833024 34.44149,49.623773 29.368996,49.174921 24.094597,47.217988 15.293059,43.948668 9.3787742,45.675739 12.544035,63.03808 Z"
     id="path36"
     inkscape:connector-curvature="0"
     style="fill:#034672" /><path
     d="M 47.102533,9.233305 C 45.46865,8.310751 40.464493,5.1765527 39.214231,4.4745419 37.962415,3.7709781 34.985082,1.5531211 31.72974,1.5531211 c -3.255342,0 -6.234228,2.217857 -7.48449,2.9214208 -1.250263,0.7020108 -6.254419,3.8377621 -7.888303,4.7587631 -1.250262,0.705117 -5.783823,3.163708 -5.783823,9.846788 0,2.033035 0,5.535324 0,7.02166 0,4.415524 2.480335,7.73299 6.95643,10.0021 1.526718,0.775008 2.736599,2.064098 2.736599,5.386224 0,1.464594 0.546699,1.803174 1.425765,1.803174 l 1.056123,0 c 0.9707,0 1.498762,0.364984 1.498762,1.95072 0,0.872854 0,3.202536 0,3.202536 l 0,57.776103 4.213617,4.31613 1.932083,0 8.824834,-9.03762 0,-53.054613 c 0,0 0,-2.329682 0,-3.202536 0,-1.585736 0.528061,-1.95072 1.498762,-1.95072 l 1.056122,0 c 0.879067,0 1.425766,-0.33858 1.425766,-1.803174 0,-3.322126 1.208328,-4.611216 2.736599,-5.386224 4.476095,-2.270663 6.956429,-5.588129 6.956429,-10.0021 0,-1.484783 0,-4.988625 0,-7.02166 -0.0047,-6.68308 -4.538219,-9.141671 -5.788482,-9.846788 z"
     id="path38"
     inkscape:connector-curvature="0"
     style="fill:#ffffff" /><linearGradient
     id="SVGID_4_"
     gradientUnits="userSpaceOnUse"
     x1="-180.0332"
     y1="141.6543"
     x2="-149.19859"
     y2="149.3212"
     gradientTransform="matrix(1.5531211,0,0,-1.5531211,296.40177,279.08344)"><stop
       offset="0"
       style="stop-color:#B8D7E9"
       id="stop41" /><stop
       offset="0.3324"
       style="stop-color:#CCE3F1"
       id="stop43" /><stop
       offset="0.6937"
       style="stop-color:#DAEBF7"
       id="stop45" /><stop
       offset="1"
       style="stop-color:#DFEEF9"
       id="stop47" /></linearGradient><path
     d="M 47.102533,9.233305 C 45.46865,8.310751 40.464493,5.1765527 39.214231,4.4745419 37.962415,3.7709781 34.985082,1.5531211 31.72974,1.5531211 l 0,107.6157589 7.484491,-7.6662 0,-53.05462 c 0,0 0,-2.329682 0,-3.202536 0,-1.585736 0.528061,-1.95072 1.498762,-1.95072 l 1.056122,0 c 0.879067,0 1.425765,-0.33858 1.425765,-1.803173 0,-3.322126 1.208329,-4.611217 2.7366,-5.386224 4.476095,-2.270664 6.956429,-5.58813 6.956429,-10.0021 0,-1.484784 0,-4.988625 0,-7.021661 -0.0016,-6.684633 -4.535113,-9.143224 -5.785376,-9.848341 z"
     id="path49"
     inkscape:connector-curvature="0"
     style="fill:url(#SVGID_4_)" /><linearGradient
     id="SVGID_5_"
     gradientUnits="userSpaceOnUse"
     x1="-177.0732"
     y1="165.8252"
     x2="-168.4482"
     y2="123.5749"
     gradientTransform="matrix(1.5531211,0,0,-1.5531211,296.40177,279.08344)"><stop
       offset="0"
       style="stop-color:#F1F9FE"
       id="stop52" /><stop
       offset="0.4254"
       style="stop-color:#E9F5FD"
       id="stop54" /><stop
       offset="1"
       style="stop-color:#E4F3FD"
       id="stop56" /></linearGradient><path
     d="m 31.72974,1.5531211 c -3.256895,0 -6.234228,2.217857 -7.48449,2.9214208 -1.250263,0.7020108 -6.254419,3.8377621 -7.888303,4.7587631 -1.250262,0.705117 -5.783823,3.163708 -5.783823,9.846788 0,2.033035 0,5.535324 0,7.02166 0,4.415524 2.480335,7.73299 6.95643,10.0021 1.526718,0.775008 2.736599,2.064098 2.736599,5.386224 0,1.464594 0.546699,1.803174 1.425765,1.803174 l 1.056123,0 c 0.9707,0 1.498762,0.364984 1.498762,1.95072 0,0.872854 0,3.202536 0,3.202536 l 0,57.776103 4.213617,4.31613 1.932083,0 1.33879,-1.37141 -0.0016,-107.6142089 0,0 z"
     id="path58"
     inkscape:connector-curvature="0"
     style="fill:url(#SVGID_5_)" /><path
     stroke-miterlimit="10"
     d="m 31.279335,1.5531211 c 2.963355,1.4568276 5.328759,3.0534361 6.579021,3.757 1.250263,0.7020107 6.254419,3.8377619 7.888302,4.7587629 1.250263,0.705117 5.783823,3.163708 5.783823,9.846788 0,2.033036 0,4.358058 0,5.842842 0,4.415523 -2.480334,7.73299 -6.956429,10.0021 -1.526718,0.775007 -2.7366,2.222516 -2.7366,5.543089 l 0,1.922764"
     id="path60"
     inkscape:connector-curvature="0"
     style="fill:none;stroke:#ffffff;stroke-width:3.10624218;stroke-miterlimit:10" /><path
     stroke-miterlimit="10"
     d="M 47.102533,9.233305 C 45.46865,8.310751 40.464493,5.1765527 39.214231,4.4745419 37.962415,3.7709781 34.985082,1.5531211 31.72974,1.5531211 c -3.255342,0 -6.234228,2.217857 -7.48449,2.9214208 -1.250263,0.7020108 -6.254419,3.8377621 -7.888303,4.7587631 -1.250262,0.705117 -5.783823,3.163708 -5.783823,9.846788 0,2.033035 0,5.535324 0,7.02166 0,4.415524 2.480335,7.73299 6.95643,10.0021 1.526718,0.775008 2.736599,2.064098 2.736599,5.386224 0,1.464594 0.546699,1.803174 1.425765,1.803174 l 1.056123,0 c 0.9707,0 1.498762,0.364984 1.498762,1.95072 0,0.872854 0,3.202536 0,3.202536 l 0,57.776103 4.213617,4.31613 1.932083,0 8.824834,-9.03762 0,-53.054613 c 0,0 0,-2.329682 0,-3.202536 0,-1.585736 0.528061,-1.95072 1.498762,-1.95072 l 1.056122,0 c 0.879067,0 1.425766,-0.33858 1.425766,-1.803174 0,-3.322126 1.208328,-4.611216 2.736599,-5.386224 4.476095,-2.270663 6.956429,-5.588129 6.956429,-10.0021 0,-1.484783 0,-4.988625 0,-7.02166 -0.0047,-6.68308 -4.538219,-9.141671 -5.788482,-9.846788 z"
     id="path62"
     inkscape:connector-curvature="0"
     style="fill:none;stroke:#034672;stroke-width:3.10624218;stroke-miterlimit:10" /><path
     stroke-miterlimit="10"
     d="M 54.745442,48.446507"
     id="path64"
     inkscape:connector-curvature="0"
     style="fill:#e9f6fe;stroke:#034672;stroke-width:3.10624218;stroke-miterlimit:10" /><g
     id="g66"
     transform="matrix(1.5531211,0,0,1.5531211,-4.9037273,-4.3611641)"><linearGradient
       id="SVGID_6_"
       gradientUnits="userSpaceOnUse"
       x1="-72.487801"
       y1="166.5"
       x2="-72.487801"
       y2="111.1529"
       gradientTransform="matrix(1,0,0,-1,194,182.5)"><stop
         offset="0"
         style="stop-color:#035E93"
         id="stop69" /><stop
         offset="0.5912"
         style="stop-color:#014A77"
         id="stop71" /><stop
         offset="1"
         style="stop-color:#004068"
         id="stop73" /></linearGradient><path
       d="m 127.54,48.914 -11.599,0 c 0.303,2.346 1.01,3.92 2.117,4.725 1.107,0.805 2.943,1.205 5.506,1.205 3.432,0 7.43,-0.238 11.99,-0.717 l 0.912,5.994 c -3.346,1.607 -8.015,2.411 -14.01,2.411 -6.038,0 -10.339,-1.304 -12.901,-3.909 -2.563,-2.607 -3.845,-6.907 -3.845,-12.902 0,-6.299 1.248,-10.707 3.746,-13.228 2.498,-2.519 6.701,-3.779 12.609,-3.779 5.344,0 9.209,0.923 11.599,2.769 2.389,1.848 3.605,4.66 3.649,8.439 0,2.997 -0.771,5.245 -2.313,6.744 -1.541,1.498 -4.029,2.248 -7.46,2.248 z m -11.794,-5.8 9.122,0 c 1.173,0 1.966,-0.282 2.378,-0.847 0.413,-0.564 0.619,-1.392 0.619,-2.478 0,-1.52 -0.391,-2.574 -1.172,-3.16 -0.782,-0.586 -2.216,-0.88 -4.301,-0.88 -2.477,0 -4.171,0.489 -5.083,1.466 -0.912,0.98 -1.433,2.945 -1.563,5.899 z"
       id="path75"
       inkscape:connector-curvature="0"
       style="fill:url(#SVGID_6_)" /><linearGradient
       id="SVGID_7_"
       gradientUnits="userSpaceOnUse"
       x1="-38.8638"
       y1="166.5"
       x2="-38.8638"
       y2="111.1545"
       gradientTransform="matrix(1,0,0,-1,194,182.5)"><stop
         offset="0"
         style="stop-color:#035E93"
         id="stop78" /><stop
         offset="0.5912"
         style="stop-color:#014A77"
         id="stop80" /><stop
         offset="1"
         style="stop-color:#004068"
         id="stop82" /></linearGradient><path
       d="m 172.957,29.626 -11.402,32.581 c -0.609,1.736 -1.359,3.344 -2.248,4.82 -0.892,1.478 -2.031,2.899 -3.422,4.27 -1.391,1.368 -3.117,2.378 -5.18,3.029 -2.064,0.652 -4.355,0.824 -6.875,0.521 l -0.781,-5.67 c 2.605,-0.695 4.647,-1.597 6.125,-2.703 1.477,-1.107 2.627,-2.597 3.453,-4.464 l 0.131,-0.262 -1.825,0 c -1.607,0 -2.649,-0.781 -3.128,-2.347 l -10.49,-29.777 10.295,0 5.995,20.786 c 0.391,1.521 0.717,3.128 0.978,4.821 l 0.847,0 c 0.13,-0.521 0.347,-1.336 0.651,-2.442 0.304,-1.106 0.521,-1.899 0.652,-2.379 l 5.93,-20.786 10.294,0.002 0,0 z"
       id="path84"
       inkscape:connector-curvature="0"
       style="fill:url(#SVGID_7_)" /><linearGradient
       id="SVGID_8_"
       gradientUnits="userSpaceOnUse"
       x1="-7.7782998"
       y1="166.5"
       x2="-7.7782998"
       y2="111.1529"
       gradientTransform="matrix(1,0,0,-1,194,182.5)"><stop
         offset="0"
         style="stop-color:#035E93"
         id="stop87" /><stop
         offset="0.5912"
         style="stop-color:#014A77"
         id="stop89" /><stop
         offset="1"
         style="stop-color:#004068"
         id="stop91" /></linearGradient><path
       d="m 199.644,54.127 0.849,6.256 c -3.304,1.434 -7.451,2.149 -12.446,2.149 -5.908,0 -10.066,-1.271 -12.479,-3.812 -2.412,-2.54 -3.616,-6.896 -3.616,-13.063 0,-6.213 1.216,-10.59 3.647,-13.131 2.435,-2.541 6.625,-3.812 12.576,-3.812 4.865,0 8.818,0.674 11.859,2.021 l -1.042,5.994 c -4.692,-0.086 -7.755,-0.131 -9.188,-0.131 -2.953,0 -4.984,0.631 -6.092,1.891 -1.107,1.26 -1.662,3.648 -1.662,7.168 0,3.518 0.555,5.908 1.662,7.167 1.107,1.261 3.139,1.89 6.092,1.89 3.779,-10e-4 7.058,-0.196 9.84,-0.587 z"
       id="path93"
       inkscape:connector-curvature="0"
       style="fill:url(#SVGID_8_)" /><linearGradient
       id="SVGID_9_"
       gradientUnits="userSpaceOnUse"
       x1="42.971699"
       y1="166.5"
       x2="42.971699"
       y2="111.1529"
       gradientTransform="matrix(1,0,0,-1,194,182.5)"><stop
         offset="0"
         style="stop-color:#035E93"
         id="stop96" /><stop
         offset="0.5912"
         style="stop-color:#014A77"
         id="stop98" /><stop
         offset="1"
         style="stop-color:#004068"
         id="stop100" /></linearGradient><path
       d="m 237.004,28.714 c 5.996,0 10.241,1.293 12.74,3.877 2.497,2.585 3.746,6.962 3.746,13.13 0,6.17 -1.249,10.523 -3.746,13.064 -2.499,2.542 -6.744,3.812 -12.74,3.812 -6.038,0 -10.308,-1.271 -12.804,-3.812 -2.499,-2.541 -3.747,-6.896 -3.747,-13.064 0,-6.211 1.248,-10.599 3.747,-13.162 2.497,-2.563 6.766,-3.845 12.804,-3.845 z m 0,7.233 c -2.562,0 -4.278,0.65 -5.146,1.954 -0.871,1.304 -1.305,3.91 -1.305,7.819 0,3.823 0.434,6.386 1.305,7.689 0.867,1.303 2.584,1.955 5.146,1.955 2.478,0 4.16,-0.652 5.052,-1.955 0.889,-1.304 1.336,-3.866 1.336,-7.689 0,-3.864 -0.437,-6.461 -1.305,-7.787 -0.869,-1.324 -2.565,-1.986 -5.083,-1.986 z"
       id="path102"
       inkscape:connector-curvature="0"
       style="fill:url(#SVGID_9_)" /><linearGradient
       id="SVGID_10_"
       gradientUnits="userSpaceOnUse"
       x1="76.881798"
       y1="166.5"
       x2="76.881798"
       y2="111.1529"
       gradientTransform="matrix(1,0,0,-1,194,182.5)"><stop
         offset="0"
         style="stop-color:#035E93"
         id="stop105" /><stop
         offset="0.5912"
         style="stop-color:#014A77"
         id="stop107" /><stop
         offset="1"
         style="stop-color:#004068"
         id="stop109" /></linearGradient><path
       d="m 257.883,36.794 -0.911,-6.517 c 5.776,-1.043 11.358,-1.563 16.745,-1.563 4.345,0 7.537,0.88 9.578,2.64 2.043,1.759 3.063,4.811 3.063,9.154 l 0,21.242 -7.625,0 -0.977,-4.887 c -3.217,3.779 -7.168,5.669 -11.859,5.669 -3.086,0 -5.604,-0.814 -7.559,-2.443 -1.955,-1.629 -2.934,-3.897 -2.934,-6.81 l 0,-3.258 c 0,-2.562 0.869,-4.562 2.607,-5.994 1.735,-1.435 4.147,-2.15 7.231,-2.15 l 11.469,0 0,-1.434 c -0.045,-1.65 -0.424,-2.759 -1.141,-3.324 -0.718,-0.563 -2.097,-0.847 -4.14,-0.847 -3.557,0 -8.074,0.175 -13.547,0.522 z m 7.037,13.944 0,1.238 c 0,2.215 1.261,3.321 3.779,3.321 2.606,0 5.278,-1.042 8.016,-3.127 l 0,-4.496 -8.666,0 c -2.086,0.045 -3.129,1.066 -3.129,3.064 z"
       id="path111"
       inkscape:connector-curvature="0"
       style="fill:url(#SVGID_10_)" /><linearGradient
       id="SVGID_11_"
       gradientUnits="userSpaceOnUse"
       x1="-102.0625"
       y1="166.5"
       x2="-102.0625"
       y2="111.1545"
       gradientTransform="matrix(1,0,0,-1,194,182.5)"><stop
         offset="0"
         style="stop-color:#035E93"
         id="stop114" /><stop
         offset="0.5912"
         style="stop-color:#014A77"
         id="stop116" /><stop
         offset="1"
         style="stop-color:#004068"
         id="stop118" /></linearGradient><path
       d="m 98.519,47.415 c -0.913,-1.563 -1.912,-2.714 -2.997,-3.454 l 0,-0.13 c 1.303,-0.868 2.302,-1.89 2.997,-3.062 l 8.341,-11.144 -10.817,0 -7.95,11.208 -2.997,0 c 0.303,-1.781 0.455,-3.736 0.455,-5.865 l 0,-18.83 -2.992,0 -6.651,9.482 0,36.13 9.644,0 0,-10.1 c 0,-1.26 -0.152,-2.867 -0.455,-4.822 l 3.062,0 8.991,14.922 10.816,0 -9.447,-14.335 z"
       id="path120"
       inkscape:connector-curvature="0"
       style="fill:url(#SVGID_11_)" /><linearGradient
       id="SVGID_12_"
       gradientUnits="userSpaceOnUse"
       x1="17.315901"
       y1="166.5"
       x2="17.315901"
       y2="111.1533"
       gradientTransform="matrix(1,0,0,-1,194,182.5)"><stop
         offset="0"
         style="stop-color:#035E93"
         id="stop123" /><stop
         offset="0.5912"
         style="stop-color:#014A77"
         id="stop125" /><stop
         offset="1"
         style="stop-color:#004068"
         id="stop127" /></linearGradient><path
       d="m 218.678,54.518 -2.606,0 c -2.434,0 -3.647,-1.086 -3.647,-3.258 l 0,-35.122 -3.014,0 -6.565,9.36 0,28.172 c 0,2.824 0.825,5.008 2.477,6.549 1.65,1.542 3.91,2.313 6.777,2.313 3.475,0 6.036,-0.435 7.688,-1.304 l -1.11,-6.71 z"
       id="path129"
       inkscape:connector-curvature="0"
       style="fill:url(#SVGID_12_)" /><linearGradient
       id="SVGID_13_"
       gradientUnits="userSpaceOnUse"
       x1="112.103"
       y1="166.5"
       x2="112.103"
       y2="111.1545"
       gradientTransform="matrix(1,0,0,-1,194,182.5)"><stop
         offset="0"
         style="stop-color:#035E93"
         id="stop132" /><stop
         offset="0.5912"
         style="stop-color:#014A77"
         id="stop134" /><stop
         offset="1"
         style="stop-color:#004068"
         id="stop136" /></linearGradient><path
       d="m 312.684,47.415 c -0.911,-1.563 -1.911,-2.714 -2.998,-3.454 l 0,-0.13 c 1.304,-0.868 2.304,-1.89 2.998,-3.062 l 8.341,-11.144 -10.816,0 -7.949,11.208 -2.998,0 c 0.303,-1.781 0.457,-3.736 0.457,-5.865 l 0,-18.83 -2.992,0 -6.651,9.484 0,36.128 9.645,0 0,-10.1 c 0,-1.26 -0.153,-2.867 -0.457,-4.822 l 3.062,0 8.992,14.922 10.815,0 -9.449,-14.335 z"
       id="path138"
       inkscape:connector-curvature="0"
       style="fill:url(#SVGID_13_)" /></g><linearGradient
     id="SVGID_14_"
     gradientUnits="userSpaceOnUse"
     x1="-170.4106"
     y1="170.666"
     x2="-170.4106"
     y2="160.49809"
     gradientTransform="matrix(1,0,0,-1,194,182.5)"><stop
       offset="0"
       style="stop-color:#00639A"
       id="stop141" /><stop
       offset="0.2355"
       style="stop-color:#00578A"
       id="stop143" /><stop
       offset="0.507"
       style="stop-color:#004D7B"
       id="stop145" /><stop
       offset="0.7167"
       style="stop-color:#004773"
       id="stop147" /><stop
       offset="1"
       style="stop-color:#00446E"
       id="stop149" /></linearGradient><polygon
     points="14.537,11.704 13.537,15.443 23.589,20.501 33.641,15.443 32.641,11.704 23.589,13.729 "
     id="polygon151"
     style="fill:url(#SVGID_14_)"
     transform="matrix(1.5531211,0,0,1.5531211,-4.9037273,-4.3611641)" /><polyline
     enable-background="new    "
     points="23.589,20.501 33.641,15.443 32.641,11.704 23.589,13.729 "
     id="polyline153"
     style="opacity:0.2"
     transform="matrix(1.5531211,0,0,1.5531211,-4.9037273,-4.3611641)" /><path
     d="m 24.094597,47.216435 c 5.274399,1.958486 10.346893,2.407338 15.27184,0.615036 l -0.439534,-3.452588 c -4.112664,1.273559 -9.821937,1.155522 -14.782606,0.116484 l -0.0497,2.721068 z"
     id="path155"
     inkscape:connector-curvature="0"
     style="fill:#034672" /><path
     d="m 31.308844,46.668183 c -0.625907,4.281955 2.944718,7.310541 2.944718,11.83323 5.977963,-6.73278 -1.666499,-9.003443 -2.944718,-11.83323 z"
     id="path157"
     inkscape:connector-curvature="0"
     style="fill:#034672" /><path
     d="m 31.235848,46.958617 c -0.183269,4.980859 -0.624355,8.667969 -2.703984,11.255469 -3.757,-7.357135 1.066994,-9.815726 2.703984,-11.255469 z"
     id="path159"
     inkscape:connector-curvature="0"
     style="fill:#034672" /><circle
     cx="31.279337"
     cy="46.92445"
     r="2.4756751"
     id="circle161"
     style="fill:#034672" /><linearGradient
     id="SVGID_15_"
     gradientUnits="userSpaceOnUse"
     x1="-159.6411"
     y1="118.8945"
     x2="-159.6411"
     y2="118.8945"
     gradientTransform="matrix(1.5531211,0,0,-1.5531211,296.40177,279.08344)"><stop
       offset="0"
       style="stop-color:#F6F6F6"
       id="stop164" /><stop
       offset="0.5386"
       style="stop-color:#E4E4E4"
       id="stop166" /><stop
       offset="1"
       style="stop-color:#DADADA"
       id="stop168" /></linearGradient><path
     d="M 48.459961,94.425104"
     id="path170"
     inkscape:connector-curvature="0"
     style="fill:url(#SVGID_15_)" /></svg>